<svg xmlns="http://www.w3.org/2000/svg" version="1.1" xmlns:xlink="http://www.w3.org/1999/xlink" xmlns:svgjs="http://svgjs.dev/svgjs" width="1500" height="1500" viewBox="0 0 1500 1500"><rect width="1500" height="1500" fill="#ffffff"></rect><g transform="matrix(0.6666666666666666,0,0,0.6666666666666666,249.39393939393938,651.8015383229545)"><svg viewBox="0 0 396 78" data-background-color="#ffffff" preserveAspectRatio="xMidYMid meet" height="295" width="1500" xmlns="http://www.w3.org/2000/svg" xmlns:xlink="http://www.w3.org/1999/xlink"><g id="tight-bounds" transform="matrix(1,0,0,1,0.2400000000000091,-0.05349147045990321)"><svg viewBox="0 0 395.52 78.10698294091982" height="78.10698294091982" width="395.52"><g><svg viewBox="0 0 569.5082617521675 112.46604997317316" height="78.10698294091982" width="395.52"><g transform="matrix(1,0,0,1,173.9882617521676,6.611563525125128)"><svg viewBox="0 0 395.52 99.2429229229229" height="99.2429229229229" width="395.52"><g id="textblocktransform"><svg viewBox="0 0 395.52 99.2429229229229" height="99.2429229229229" width="395.52" id="textblock"><g><svg viewBox="0 0 395.52 99.2429229229229" height="99.2429229229229" width="395.52"><g transform="matrix(1,0,0,1,0,0)"><svg width="395.52" viewBox="1.25 -36.2 149.84 37.6" height="99.2429229229229" data-palette-color="url(#9e0e0b03-5e2f-403a-a916-d1bb8cd5ca81)"></svg></g></svg></g></svg></g></svg></g><g><svg viewBox="0 0 150.55938948021566 112.46604997317316" height="112.46604997317316" width="150.55938948021566"><g><svg xmlns="http://www.w3.org/2000/svg" xmlns:xlink="http://www.w3.org/1999/xlink" version="1.1" x="0" y="0" viewBox="8 19 83 62" enable-background="new 0 0 100 100" xml:space="preserve" height="112.46604997317316" width="150.55938948021566" class="icon-icon-0" data-fill-palette-color="accent" id="icon-0"></svg></g></svg></g></svg></g><defs></defs><mask id="52ca7f4b-76a2-45df-b58c-621b9505b79c"><g id="SvgjsG1750"><svg viewBox="0 0 395.52 78.10698294091982" height="78.10698294091982" width="395.52"><g><svg viewBox="0 0 569.5082617521675 112.46604997317316" height="78.10698294091982" width="395.52"><g transform="matrix(1,0,0,1,173.9882617521676,6.611563525125128)"><svg viewBox="0 0 395.52 99.2429229229229" height="99.2429229229229" width="395.52"><g id="SvgjsG1749"><svg viewBox="0 0 395.52 99.2429229229229" height="99.2429229229229" width="395.52" id="SvgjsSvg1748"><g><svg viewBox="0 0 395.52 99.2429229229229" height="99.2429229229229" width="395.52"><g transform="matrix(1,0,0,1,0,0)"><svg width="395.52" viewBox="1.25 -36.2 149.84 37.6" height="99.2429229229229" data-palette-color="url(#9e0e0b03-5e2f-403a-a916-d1bb8cd5ca81)"><path d="M2.7-19.45L2.7-19.45 2.45-28.9Q2.45-31.15 1.95-32.45 1.45-33.75 1.45-33.85L1.45-33.85Q1.45-34.95 4.83-35.55 8.2-36.15 9.98-36.15 11.75-36.15 11.9-35.3L11.9-35.3Q15.05-21.25 17.2-15.8L17.2-15.8Q17.45-15.2 17.73-15.2 18-15.2 18.2-15.65L18.2-15.65Q21.55-25.1 24.1-34.35L24.1-34.35Q24.3-34.95 25.1-35.27 25.9-35.6 27.88-35.9 29.85-36.2 31.8-36.2 33.75-36.2 33.75-35.4L33.75-35.4Q33.75-35.35 33.6-34.63 33.45-33.9 33.3-32.85 33.15-31.8 32.95-30.3L32.95-30.3Q32.5-26.85 32.38-22.38 32.25-17.9 32.25-13.4L32.25-13.4 32.35-8.15Q32.35-4.55 32.83-3.03 33.3-1.5 33.3-1.28 33.3-1.05 32.95-0.75L32.95-0.75Q31.4 0.5 28.25 0.5L28.25 0.5Q26.25 0.5 26-0.85L26-0.85Q25.85-1.55 25.85-3.08 25.85-4.6 26.15-12.45 26.45-20.3 26.45-23.88 26.45-27.45 26.05-27.45L26.05-27.45Q26-27.45 26-27.43 26-27.4 25.85-27.35 25.7-27.3 25.08-25.8 24.45-24.3 22.6-18.4 20.75-12.5 19.25-7.38 17.75-2.25 17.6-1.85L17.6-1.85Q17.05-0.5 15.5-0.5L15.5-0.5Q14.75-0.5 14.3-1.05L14.3-1.05Q12.7-8.45 8.6-22.2L8.6-22.2 7.2-26.75Q7.1-27 7-27L7-27Q6.75-27 6.65-26.65L6.65-26.65Q6.45-23.4 6.45-13.88 6.45-4.35 7.15-1.85L7.15-1.85Q7.2-1.75 7.2-1.55L7.2-1.55Q7.2-0.5 5.55-0.03 3.9 0.45 2.58 0.45 1.25 0.45 1.25-0.15L1.25-0.15Q1.25-0.2 1.5-0.95L1.5-0.95Q2.25-3.5 2.48-8.35 2.7-13.2 2.7-19.45ZM41.15-18.85L41.15-18.85Q39.85-18.8 39.27-18.78 38.7-18.75 38.7-19.05 38.7-19.35 39-19.65L39-19.65Q42.2-22.6 49.8-22.6L49.8-22.6Q52.4-22.6 53.9-22.15L53.9-22.15 54.4-22Q55-21.75 55-21.45L55-21.45Q55-21.2 54.65-21.05L54.65-21.05Q53.3-20.65 52.05-19.78 50.8-18.9 50.8-18.55L50.8-18.55 51.1-18.2Q52.7-17.3 53.57-15.35 54.45-13.4 54.55-11.9L54.55-11.9 54.65-10.35Q54.65-5.4 51.9-2.2 49.15 1 44.4 1L44.4 1Q42 1 40.25 0.15 38.5-0.7 37.67-1.78 36.85-2.85 36.35-4.2L36.35-4.2Q35.75-6.05 35.75-8.03 35.75-10 36.42-12 37.1-14 37.97-14.95 38.85-15.9 39.95-16.5L39.95-16.5Q41.35-17.25 42.2-17.25 43.05-17.25 43.05-16.9L43.05-16.9 42.75-16.4Q41.65-15.1 41.17-13 40.7-10.9 40.7-9.28 40.7-7.65 41.1-6.05 41.5-4.45 42-3.68 42.5-2.9 43.15-2.5L43.15-2.5Q44.1-1.9 45.15-1.9 46.2-1.9 47.2-2.73 48.2-3.55 48.65-4.9L48.65-4.9Q49.55-7.4 49.55-10.05L49.55-10.05Q49.55-14.25 47.42-16.55 45.3-18.85 41.15-18.85ZM68.52-21.6Q70.65-22.65 72.75-22.65 74.84-22.65 74.84-18.3L74.84-18.3Q74.84-15.1 73.67-11.8 72.5-8.5 70.75-6L70.75-6Q67.15-0.75 64.25 1L64.25 1Q63.55 1.4 63.2 1.4 62.85 1.4 62.47 0.65 62.1-0.1 61.32-2.65 60.55-5.2 60.05-7.2L60.05-7.2 59.6-9.25Q58.6-13.65 57.65-16.28 56.7-18.9 56.25-19.3L56.25-19.3 55.75-19.75Q55.25-20 55.25-20.35L55.25-20.35 55.5-20.8Q56.15-21.4 57.67-22.03 59.2-22.65 61.05-22.65L61.05-22.65Q61.9-22.65 62.1-21.7L62.1-21.7Q62.85-19.4 63.4-16.3 63.95-13.2 64.87-9.3 65.8-5.4 66.4-5.35L66.4-5.35Q66.7-5.35 67.07-5.8 67.45-6.25 67.97-7 68.5-7.75 69.27-9.9 70.05-12.05 70.05-13.58 70.05-15.1 69.92-15.93 69.8-16.75 69.05-17.85 68.3-18.95 67.34-19.13 66.4-19.3 66.4-19.75L66.4-19.75Q66.4-20.55 68.52-21.6ZM81.74-26.75L81.74-26.75 80.54-26.8Q79.19-26.8 78.79-26.15L78.79-26.15Q78.69-26 78.54-26L78.54-26Q77.89-26 77.89-28.23 77.89-30.45 78.57-31.05 79.24-31.65 80.92-31.65 82.59-31.65 83.19-31.08 83.79-30.5 83.79-29.15 83.79-27.8 83.34-27.28 82.89-26.75 81.74-26.75ZM77.74-1.5L77.74-1.5 78.29-13.15Q78.29-17.3 77.34-18.8L77.34-18.8Q77.04-19.3 76.64-19.55L76.64-19.55Q76.34-19.65 76.34-19.95L76.34-19.95Q76.34-20.85 78.89-21.7 81.44-22.55 82.62-22.55 83.79-22.55 83.84-21.95L83.84-21.95Q83.84-20.95 83.57-16.28 83.29-11.6 83.29-6.45 83.29-1.3 83.89-0.05L83.89-0.05Q84.04 0.2 84.04 0.45L84.04 0.45Q84.04 1.1 82.14 1.1 80.24 1.1 78.24 0.1L78.24 0.1Q77.74-0.15 77.74-1.5ZM91.84-12.7L91.84-12.7 91.89-11.45Q91.89-11.15 92.29-11.15L92.29-11.15Q93.89-11.3 95.09-11.98 96.29-12.65 96.89-13.5L96.89-13.5Q98.09-15.35 98.19-16.7L98.19-16.7 98.24-17.3Q98.24-20 96.09-20L96.09-20Q94.49-20 93.49-18.6L93.49-18.6Q91.84-16.4 91.84-12.7ZM102.74-6.05L102.74-6.05Q102.74-4.15 101.97-2.73 101.19-1.3 100.22-0.63 99.24 0.05 97.94 0.45L97.94 0.45Q96.29 0.95 94.79 0.95L94.79 0.95Q90.59 0.95 88.59-2.2 86.59-5.35 86.59-10.23 86.59-15.1 89.06-18.9 91.54-22.7 96.49-22.7L96.49-22.7Q100.99-22.7 102.59-19.55L102.59-19.55Q103.24-18.35 103.24-17.28 103.24-16.2 103.14-15.58 103.04-14.95 102.44-13.7 101.84-12.45 100.84-11.45 99.84-10.45 97.69-9.55 95.54-8.65 92.64-8.35L92.64-8.35Q92.24-8.35 92.24-8L92.24-8Q92.24-7.55 92.56-6.68 92.89-5.8 93.29-5.2L93.29-5.2Q94.39-3.8 96.54-3.8L96.54-3.8Q98.69-3.8 100.19-5.2L100.19-5.2Q100.99-5.95 101.49-7.05L101.49-7.05Q101.69-7.45 102.02-7.45 102.34-7.45 102.54-6.9 102.74-6.35 102.74-6.05ZM122.94-9.95L122.84-14.7Q122.84-15.85 121.44-15.95L121.44-15.95 117.89-15.95Q117.49-15.95 117.49-16.2L117.49-16.2Q117.79-17.65 118.54-18.53 119.29-19.4 119.79-19.5L119.79-19.5Q121.19-19.7 124.39-19.7 127.59-19.7 128.39-19.68 129.19-19.65 129.39-19.5L129.39-19.5Q129.59-19.25 129.59-18.93 129.59-18.6 129.41-14.78 129.24-10.95 129.24-7.93 129.24-4.9 129.44-4.13 129.64-3.35 129.64-3.15L129.64-3.15Q129.64-2.35 128.24-1.43 126.84-0.5 124.01 0.2 121.19 0.9 117.79 0.9L117.79 0.9Q113.24 0.9 109.89-2.25L109.89-2.25Q107.29-4.75 106.31-7.7 105.34-10.65 105.34-16L105.34-16Q105.34-35.85 119.89-35.85L119.89-35.85Q122.34-35.85 124.29-35.33 126.24-34.8 127.71-33.27 129.19-31.75 129.19-29.35L129.19-29.35Q129.19-28.1 128.69-26.8L128.69-26.8Q127.79-24.15 124.69-24.15L124.69-24.15Q122.99-24.15 122.11-25.03 121.24-25.9 121.24-27.45L121.24-27.45Q121.24-28.05 121.89-28.2L121.89-28.2Q122.84-28.75 122.84-30.08 122.84-31.4 121.84-32.13 120.84-32.85 119.74-32.85L119.74-32.85Q117.34-32.85 115.69-31.13 114.04-29.4 113.29-26.6L113.29-26.6Q112.04-21.6 112.04-16.4L112.04-16.4Q112.04-7.9 116.19-5.1L116.19-5.1Q117.74-4 119.44-4L119.44-4Q122.59-4 122.79-5.15L122.79-5.15Q122.94-6.7 122.94-9.95L122.94-9.95ZM137.24-18.85L137.24-18.85Q135.94-18.8 135.36-18.78 134.78-18.75 134.78-19.05 134.78-19.35 135.09-19.65L135.09-19.65Q138.28-22.6 145.89-22.6L145.89-22.6Q148.49-22.6 149.99-22.15L149.99-22.15 150.49-22Q151.09-21.75 151.09-21.45L151.09-21.45Q151.09-21.2 150.74-21.05L150.74-21.05Q149.39-20.65 148.14-19.78 146.89-18.9 146.89-18.55L146.89-18.55 147.19-18.2Q148.78-17.3 149.66-15.35 150.54-13.4 150.64-11.9L150.64-11.9 150.74-10.35Q150.74-5.4 147.99-2.2 145.24 1 140.49 1L140.49 1Q138.09 1 136.34 0.15 134.59-0.7 133.76-1.78 132.94-2.85 132.44-4.2L132.44-4.2Q131.84-6.05 131.84-8.03 131.84-10 132.51-12 133.19-14 134.06-14.95 134.94-15.9 136.03-16.5L136.03-16.5Q137.44-17.25 138.28-17.25 139.14-17.25 139.14-16.9L139.14-16.9 138.84-16.4Q137.74-15.1 137.26-13 136.78-10.9 136.78-9.28 136.78-7.65 137.19-6.05 137.59-4.45 138.09-3.68 138.59-2.9 139.24-2.5L139.24-2.5Q140.19-1.9 141.24-1.9 142.28-1.9 143.28-2.73 144.28-3.55 144.74-4.9L144.74-4.9Q145.64-7.4 145.64-10.05L145.64-10.05Q145.64-14.25 143.51-16.55 141.39-18.85 137.24-18.85Z" opacity="1" transform="matrix(1,0,0,1,0,0)" fill="white" class="wordmark-text-0" id="SvgjsPath1747"></path></svg></g></svg></g></svg></g></svg></g><g><svg viewBox="0 0 150.55938948021566 112.46604997317316" height="112.46604997317316" width="150.55938948021566"><g><svg xmlns="http://www.w3.org/2000/svg" xmlns:xlink="http://www.w3.org/1999/xlink" version="1.1" x="0" y="0" viewBox="8 19 83 62" enable-background="new 0 0 100 100" xml:space="preserve" height="112.46604997317316" width="150.55938948021566" class="icon-icon-0" data-fill-palette-color="accent" id="SvgjsSvg1746"><g fill="black"><path fill="black" d="M83.891 19H15.109C11.189 19 8 22.113 8 25.939v48.121C8 77.887 11.189 81 15.109 81h68.783C87.811 81 91 77.887 91 74.061V25.939C91 22.113 87.811 19 83.891 19zM22 47h-8v-8h8V47zM14 53h8v8h-8V53zM28 25h43.125v50H28V25zM76.992 33v-8h6c1.105 0 2 0.895 2 2v6C84.992 33 77.048 32.997 76.992 33M76.992 47v-8h8v8C84.992 47 77.048 46.997 76.992 47M76.992 61v-8h8v8C84.992 61 77.048 60.997 76.992 61M77 75v-8h8v5.999c0 1.105-0.891 2-1.995 2C80.647 74.999 77.038 74.998 77 75M16 25h6v8h-8v-6C14 25.9 14.9 25 16 25zM14 73v-6h8v8h-6C14.9 75 14 74.1 14 73z"></path><path fill="black" d="M57.373 49.852L44.38 40.534C43.385 39.821 42 40.532 42 41.756v18.636c0 1.224 1.385 1.935 2.38 1.222l12.993-9.318C58.209 51.696 58.209 50.452 57.373 49.852z"></path></g></svg></g></svg></g></svg></g><defs><mask></mask></defs></svg><rect width="395.52" height="78.10698294091982" fill="black" stroke="none" visibility="hidden"></rect></g></mask><linearGradient x1="0" x2="1" y1="0.5" y2="0.5" id="9e0e0b03-5e2f-403a-a916-d1bb8cd5ca81"><stop stop-color="#ffa62e" offset="0"></stop><stop stop-color="#f71b3d" offset="1"></stop></linearGradient><rect width="395.52" height="78.10698294091982" fill="url(#9e0e0b03-5e2f-403a-a916-d1bb8cd5ca81)" mask="url(#52ca7f4b-76a2-45df-b58c-621b9505b79c)" data-fill-palette-color="primary"></rect><mask id="2eef19c6-024f-49e3-bbf6-39073ae8b51f"><g id="SvgjsG1759"><svg viewBox="0 0 395.52 78.10698294091982" height="78.10698294091982" width="395.52"><g><svg viewBox="0 0 569.5082617521675 112.46604997317316" height="78.10698294091982" width="395.52"><g transform="matrix(1,0,0,1,173.9882617521676,6.611563525125128)"><svg viewBox="0 0 395.52 99.2429229229229" height="99.2429229229229" width="395.52"><g id="SvgjsG1758"><svg viewBox="0 0 395.52 99.2429229229229" height="99.2429229229229" width="395.52" id="SvgjsSvg1757"><g><svg viewBox="0 0 395.52 99.2429229229229" height="99.2429229229229" width="395.52"><g transform="matrix(1,0,0,1,0,0)"><svg width="395.52" viewBox="1.25 -36.2 149.84 37.6" height="99.2429229229229" data-palette-color="url(#9e0e0b03-5e2f-403a-a916-d1bb8cd5ca81)"></svg></g></svg></g></svg></g></svg></g><g><svg viewBox="0 0 150.55938948021566 112.46604997317316" height="112.46604997317316" width="150.55938948021566"><g><svg xmlns="http://www.w3.org/2000/svg" xmlns:xlink="http://www.w3.org/1999/xlink" version="1.1" x="0" y="0" viewBox="8 19 83 62" enable-background="new 0 0 100 100" xml:space="preserve" height="112.46604997317316" width="150.55938948021566" class="icon-icon-0" data-fill-palette-color="accent" id="SvgjsSvg1756"><g fill="white"><path fill="white" d="M83.891 19H15.109C11.189 19 8 22.113 8 25.939v48.121C8 77.887 11.189 81 15.109 81h68.783C87.811 81 91 77.887 91 74.061V25.939C91 22.113 87.811 19 83.891 19zM22 47h-8v-8h8V47zM14 53h8v8h-8V53zM28 25h43.125v50H28V25zM76.992 33v-8h6c1.105 0 2 0.895 2 2v6C84.992 33 77.048 32.997 76.992 33M76.992 47v-8h8v8C84.992 47 77.048 46.997 76.992 47M76.992 61v-8h8v8C84.992 61 77.048 60.997 76.992 61M77 75v-8h8v5.999c0 1.105-0.891 2-1.995 2C80.647 74.999 77.038 74.998 77 75M16 25h6v8h-8v-6C14 25.9 14.9 25 16 25zM14 73v-6h8v8h-6C14.9 75 14 74.1 14 73z"></path><path fill="white" d="M57.373 49.852L44.38 40.534C43.385 39.821 42 40.532 42 41.756v18.636c0 1.224 1.385 1.935 2.38 1.222l12.993-9.318C58.209 51.696 58.209 50.452 57.373 49.852z"></path></g></svg></g></svg></g></svg></g><defs><mask></mask></defs><mask><g id="SvgjsG1755"><svg viewBox="0 0 395.52 78.10698294091982" height="78.10698294091982" width="395.52"><g><svg viewBox="0 0 569.5082617521675 112.46604997317316" height="78.10698294091982" width="395.52"><g transform="matrix(1,0,0,1,173.9882617521676,6.611563525125128)"><svg viewBox="0 0 395.52 99.2429229229229" height="99.2429229229229" width="395.52"><g id="SvgjsG1754"><svg viewBox="0 0 395.52 99.2429229229229" height="99.2429229229229" width="395.52" id="SvgjsSvg1753"><g><svg viewBox="0 0 395.52 99.2429229229229" height="99.2429229229229" width="395.52"><g transform="matrix(1,0,0,1,0,0)"><svg width="395.52" viewBox="1.25 -36.2 149.84 37.6" height="99.2429229229229" data-palette-color="url(#9e0e0b03-5e2f-403a-a916-d1bb8cd5ca81)"><path d="M2.7-19.45L2.7-19.45 2.45-28.9Q2.45-31.15 1.95-32.45 1.45-33.75 1.45-33.85L1.45-33.85Q1.45-34.95 4.83-35.55 8.2-36.15 9.98-36.15 11.75-36.15 11.9-35.3L11.9-35.3Q15.05-21.25 17.2-15.8L17.2-15.8Q17.45-15.2 17.73-15.2 18-15.2 18.2-15.65L18.2-15.65Q21.55-25.1 24.1-34.35L24.1-34.35Q24.3-34.95 25.1-35.27 25.9-35.6 27.88-35.9 29.85-36.2 31.8-36.2 33.75-36.2 33.75-35.4L33.75-35.4Q33.75-35.35 33.6-34.63 33.45-33.9 33.3-32.85 33.15-31.8 32.95-30.3L32.95-30.3Q32.5-26.85 32.38-22.38 32.25-17.9 32.25-13.4L32.25-13.4 32.35-8.15Q32.35-4.55 32.83-3.03 33.3-1.5 33.3-1.28 33.3-1.05 32.95-0.75L32.95-0.75Q31.4 0.5 28.25 0.5L28.25 0.5Q26.25 0.5 26-0.85L26-0.85Q25.85-1.55 25.85-3.08 25.85-4.6 26.15-12.45 26.45-20.3 26.45-23.88 26.45-27.45 26.05-27.45L26.05-27.45Q26-27.45 26-27.43 26-27.4 25.85-27.35 25.7-27.3 25.08-25.8 24.45-24.3 22.6-18.4 20.75-12.5 19.25-7.38 17.75-2.25 17.6-1.85L17.6-1.85Q17.05-0.5 15.5-0.5L15.5-0.5Q14.75-0.5 14.3-1.05L14.3-1.05Q12.7-8.45 8.6-22.2L8.6-22.2 7.2-26.75Q7.1-27 7-27L7-27Q6.75-27 6.65-26.65L6.65-26.65Q6.45-23.4 6.45-13.88 6.45-4.35 7.15-1.85L7.15-1.85Q7.2-1.75 7.2-1.55L7.2-1.55Q7.2-0.5 5.55-0.03 3.9 0.45 2.58 0.45 1.25 0.45 1.25-0.15L1.25-0.15Q1.25-0.2 1.5-0.95L1.5-0.95Q2.25-3.5 2.48-8.35 2.7-13.2 2.7-19.45ZM41.15-18.85L41.15-18.85Q39.85-18.8 39.27-18.78 38.7-18.75 38.7-19.05 38.7-19.35 39-19.65L39-19.65Q42.2-22.6 49.8-22.6L49.8-22.6Q52.4-22.6 53.9-22.15L53.9-22.15 54.4-22Q55-21.75 55-21.45L55-21.45Q55-21.2 54.65-21.05L54.65-21.05Q53.3-20.65 52.05-19.78 50.8-18.9 50.8-18.55L50.8-18.55 51.1-18.2Q52.7-17.3 53.57-15.35 54.45-13.4 54.55-11.9L54.55-11.9 54.65-10.35Q54.65-5.4 51.9-2.2 49.15 1 44.4 1L44.4 1Q42 1 40.25 0.15 38.5-0.7 37.67-1.78 36.85-2.85 36.35-4.2L36.35-4.2Q35.75-6.05 35.75-8.03 35.75-10 36.42-12 37.1-14 37.97-14.95 38.85-15.9 39.95-16.5L39.95-16.5Q41.35-17.25 42.2-17.25 43.05-17.25 43.05-16.9L43.05-16.9 42.75-16.4Q41.65-15.1 41.17-13 40.7-10.9 40.7-9.28 40.7-7.65 41.1-6.05 41.5-4.45 42-3.68 42.5-2.9 43.15-2.5L43.15-2.5Q44.1-1.9 45.15-1.9 46.2-1.9 47.2-2.73 48.2-3.55 48.65-4.9L48.65-4.9Q49.55-7.4 49.55-10.05L49.55-10.05Q49.55-14.25 47.42-16.55 45.3-18.85 41.15-18.85ZM68.52-21.6Q70.65-22.65 72.75-22.65 74.84-22.65 74.84-18.3L74.84-18.3Q74.84-15.1 73.67-11.8 72.5-8.5 70.75-6L70.75-6Q67.15-0.75 64.25 1L64.25 1Q63.55 1.4 63.2 1.4 62.85 1.4 62.47 0.65 62.1-0.1 61.32-2.65 60.55-5.2 60.05-7.2L60.05-7.2 59.6-9.25Q58.6-13.65 57.65-16.28 56.7-18.9 56.25-19.3L56.25-19.3 55.75-19.75Q55.25-20 55.25-20.35L55.25-20.35 55.5-20.8Q56.15-21.4 57.67-22.03 59.2-22.65 61.05-22.65L61.05-22.65Q61.9-22.65 62.1-21.7L62.1-21.7Q62.85-19.4 63.4-16.3 63.95-13.2 64.87-9.3 65.8-5.4 66.4-5.35L66.4-5.35Q66.7-5.35 67.07-5.8 67.45-6.25 67.97-7 68.5-7.75 69.27-9.9 70.05-12.05 70.05-13.58 70.05-15.1 69.92-15.93 69.8-16.75 69.05-17.85 68.3-18.95 67.34-19.13 66.4-19.3 66.4-19.75L66.4-19.75Q66.4-20.55 68.52-21.6ZM81.74-26.75L81.74-26.75 80.54-26.8Q79.19-26.8 78.79-26.15L78.79-26.15Q78.69-26 78.54-26L78.54-26Q77.89-26 77.89-28.23 77.89-30.45 78.57-31.05 79.24-31.65 80.92-31.65 82.59-31.65 83.19-31.08 83.79-30.5 83.79-29.15 83.79-27.8 83.34-27.28 82.89-26.75 81.74-26.75ZM77.74-1.5L77.74-1.5 78.29-13.15Q78.29-17.3 77.34-18.8L77.34-18.8Q77.04-19.3 76.64-19.55L76.64-19.55Q76.34-19.65 76.34-19.95L76.34-19.95Q76.34-20.85 78.89-21.7 81.44-22.55 82.62-22.55 83.79-22.55 83.84-21.95L83.84-21.95Q83.84-20.95 83.57-16.28 83.29-11.6 83.29-6.45 83.29-1.3 83.89-0.05L83.89-0.05Q84.04 0.2 84.04 0.45L84.04 0.45Q84.04 1.1 82.14 1.1 80.24 1.1 78.24 0.1L78.24 0.1Q77.74-0.15 77.74-1.5ZM91.84-12.7L91.84-12.7 91.89-11.45Q91.89-11.15 92.29-11.15L92.29-11.15Q93.89-11.3 95.09-11.98 96.29-12.65 96.89-13.5L96.89-13.5Q98.09-15.35 98.19-16.7L98.19-16.7 98.24-17.3Q98.24-20 96.09-20L96.09-20Q94.49-20 93.49-18.6L93.49-18.6Q91.84-16.4 91.84-12.7ZM102.74-6.05L102.74-6.05Q102.74-4.15 101.97-2.73 101.19-1.3 100.22-0.63 99.24 0.05 97.94 0.45L97.94 0.45Q96.29 0.95 94.79 0.95L94.79 0.95Q90.59 0.95 88.59-2.2 86.59-5.35 86.59-10.23 86.59-15.1 89.06-18.9 91.54-22.7 96.49-22.7L96.49-22.7Q100.99-22.7 102.59-19.55L102.59-19.55Q103.24-18.35 103.24-17.28 103.24-16.2 103.14-15.58 103.04-14.95 102.44-13.7 101.84-12.45 100.84-11.45 99.84-10.45 97.69-9.55 95.54-8.65 92.64-8.35L92.64-8.35Q92.24-8.35 92.24-8L92.24-8Q92.24-7.55 92.56-6.68 92.89-5.8 93.29-5.2L93.29-5.2Q94.39-3.8 96.54-3.8L96.54-3.8Q98.69-3.8 100.19-5.2L100.19-5.2Q100.99-5.95 101.49-7.05L101.49-7.05Q101.69-7.45 102.02-7.45 102.34-7.45 102.54-6.9 102.74-6.35 102.74-6.05ZM122.94-9.95L122.84-14.7Q122.84-15.85 121.44-15.95L121.44-15.95 117.89-15.95Q117.49-15.95 117.49-16.2L117.49-16.2Q117.79-17.65 118.54-18.53 119.29-19.4 119.79-19.5L119.79-19.5Q121.19-19.7 124.39-19.7 127.59-19.7 128.39-19.68 129.19-19.65 129.39-19.5L129.39-19.5Q129.59-19.25 129.59-18.93 129.59-18.6 129.41-14.78 129.24-10.95 129.24-7.93 129.24-4.9 129.44-4.13 129.64-3.35 129.64-3.15L129.64-3.15Q129.64-2.35 128.24-1.43 126.84-0.5 124.01 0.2 121.19 0.9 117.79 0.9L117.79 0.9Q113.24 0.9 109.89-2.25L109.89-2.25Q107.29-4.75 106.31-7.7 105.34-10.65 105.34-16L105.34-16Q105.34-35.85 119.89-35.85L119.89-35.85Q122.34-35.85 124.29-35.33 126.24-34.8 127.71-33.27 129.19-31.75 129.19-29.35L129.19-29.35Q129.19-28.1 128.69-26.8L128.69-26.8Q127.79-24.15 124.69-24.15L124.69-24.15Q122.99-24.15 122.11-25.03 121.24-25.9 121.24-27.45L121.24-27.45Q121.24-28.05 121.89-28.2L121.89-28.2Q122.84-28.75 122.84-30.08 122.84-31.4 121.84-32.13 120.84-32.85 119.74-32.85L119.74-32.85Q117.34-32.85 115.69-31.13 114.04-29.4 113.29-26.6L113.29-26.6Q112.04-21.6 112.04-16.4L112.04-16.4Q112.04-7.9 116.19-5.1L116.19-5.1Q117.74-4 119.44-4L119.44-4Q122.59-4 122.79-5.15L122.79-5.15Q122.94-6.7 122.94-9.95L122.94-9.95ZM137.24-18.85L137.24-18.85Q135.94-18.8 135.36-18.78 134.78-18.75 134.78-19.05 134.78-19.35 135.09-19.65L135.09-19.65Q138.28-22.6 145.89-22.6L145.89-22.6Q148.49-22.6 149.99-22.15L149.99-22.15 150.49-22Q151.09-21.75 151.09-21.45L151.09-21.45Q151.09-21.2 150.74-21.05L150.74-21.05Q149.39-20.65 148.14-19.78 146.89-18.9 146.89-18.55L146.89-18.55 147.19-18.2Q148.78-17.3 149.66-15.35 150.54-13.4 150.64-11.9L150.64-11.9 150.74-10.35Q150.74-5.4 147.99-2.2 145.24 1 140.49 1L140.49 1Q138.09 1 136.34 0.15 134.59-0.7 133.76-1.78 132.94-2.85 132.44-4.2L132.44-4.2Q131.84-6.05 131.84-8.03 131.84-10 132.51-12 133.19-14 134.06-14.95 134.94-15.9 136.03-16.5L136.03-16.5Q137.44-17.25 138.28-17.25 139.14-17.25 139.14-16.9L139.14-16.9 138.84-16.4Q137.74-15.1 137.26-13 136.78-10.9 136.78-9.28 136.78-7.65 137.19-6.05 137.59-4.45 138.09-3.68 138.59-2.9 139.24-2.5L139.24-2.5Q140.19-1.9 141.24-1.9 142.28-1.9 143.28-2.73 144.28-3.55 144.74-4.9L144.74-4.9Q145.64-7.4 145.64-10.05L145.64-10.05Q145.64-14.25 143.51-16.55 141.39-18.85 137.24-18.85Z" opacity="1" transform="matrix(1,0,0,1,0,0)" fill="black" class="wordmark-text-0" id="SvgjsPath1752"></path></svg></g></svg></g></svg></g></svg></g><g><svg viewBox="0 0 150.55938948021566 112.46604997317316" height="112.46604997317316" width="150.55938948021566"><g><svg xmlns="http://www.w3.org/2000/svg" xmlns:xlink="http://www.w3.org/1999/xlink" version="1.1" x="0" y="0" viewBox="8 19 83 62" enable-background="new 0 0 100 100" xml:space="preserve" height="112.46604997317316" width="150.55938948021566" class="icon-icon-0" data-fill-palette-color="accent" id="SvgjsSvg1751"><g fill="black"><path fill="black" d="M83.891 19H15.109C11.189 19 8 22.113 8 25.939v48.121C8 77.887 11.189 81 15.109 81h68.783C87.811 81 91 77.887 91 74.061V25.939C91 22.113 87.811 19 83.891 19zM22 47h-8v-8h8V47zM14 53h8v8h-8V53zM28 25h43.125v50H28V25zM76.992 33v-8h6c1.105 0 2 0.895 2 2v6C84.992 33 77.048 32.997 76.992 33M76.992 47v-8h8v8C84.992 47 77.048 46.997 76.992 47M76.992 61v-8h8v8C84.992 61 77.048 60.997 76.992 61M77 75v-8h8v5.999c0 1.105-0.891 2-1.995 2C80.647 74.999 77.038 74.998 77 75M16 25h6v8h-8v-6C14 25.9 14.9 25 16 25zM14 73v-6h8v8h-6C14.9 75 14 74.1 14 73z"></path><path fill="black" d="M57.373 49.852L44.38 40.534C43.385 39.821 42 40.532 42 41.756v18.636c0 1.224 1.385 1.935 2.38 1.222l12.993-9.318C58.209 51.696 58.209 50.452 57.373 49.852z"></path></g></svg></g></svg></g></svg></g><defs><mask></mask></defs></svg><rect width="395.52" height="78.10698294091982" fill="black" stroke="none" visibility="hidden"></rect></g></mask></svg><rect width="395.52" height="78.10698294091982" fill="black" stroke="none" visibility="hidden"></rect></g></mask><linearGradient x1="0" x2="1" y1="0.5" y2="0.5" id="1ed54b96-6ad3-4b75-b420-0e3f1d7a65c6"><stop stop-color="#ffa62e" offset="0"></stop><stop stop-color="#f71b3d" offset="1"></stop></linearGradient><rect width="395.52" height="78.10698294091982" fill="url(#1ed54b96-6ad3-4b75-b420-0e3f1d7a65c6)" mask="url(#2eef19c6-024f-49e3-bbf6-39073ae8b51f)" data-fill-palette-color="accent"></rect></svg><rect width="395.52" height="78.10698294091982" fill="none" stroke="none" visibility="hidden"></rect></g></svg></g></svg>